<svg version="1.1" viewBox="0.0 0.0 45.0 45.0" fill="none" stroke="none" stroke-linecap="square" stroke-miterlimit="10" xmlns:xlink="http://www.w3.org/1999/xlink" xmlns="http://www.w3.org/2000/svg"><clipPath id="p.0"><path d="m0 0l45.0 0l0 45.0l-45.0 0l0 -45.0z" clip-rule="nonzero"/></clipPath><g clip-path="url(#p.0)"><path fill="#000000" fill-opacity="0.0" d="m0 0l45.0 0l0 45.0l-45.0 0z" fill-rule="evenodd"/><path fill="#787c7e" d="m0 0l45.007874 0l0 45.007874l-45.007874 0z" fill-rule="evenodd"/><path stroke="#787c7e" stroke-width="2.0" stroke-linejoin="round" stroke-linecap="butt" d="m0 0l45.007874 0l0 45.007874l-45.007874 0z" fill-rule="evenodd"/><path fill="#ffffff" d="m24.368507 14.59206l6.046875 16.15625l-3.6875 0l-1.21875 -3.59375l-6.046875 0l-1.28125 3.609375l-3.59375 0l6.140625 -16.171875l3.640625 0zm-1.875 3.984375l-2.109375 5.9375l4.1875 0l-2.03125 -5.9375l-0.046875 0z" fill-rule="nonzero"/></g></svg>